<svg width="40" height="31" viewBox="0 0 40 31" fill="none" xmlns="http://www.w3.org/2000/svg">
<path d="M39.0784 18.9651L0 12.7923V16.8667C7.76588 18.0018 15.5318 19.128 23.2976 20.2456C25.23 20.5163 27.152 20.8277 29.0844 21.0692C29.1015 21.2177 28.937 21.3108 28.8343 21.4097C28.0968 21.919 27.1521 22.1596 26.2064 22.0791C21.9135 22.0442 17.6411 22.0442 13.331 21.986C8.88758 21.9109 4.4464 21.7586 0.0102778 21.5291C0.140471 23.6478 0.236402 25.7723 0.421413 27.8881C0.435829 28.2817 0.528499 28.6704 0.695503 29.0377C0.914791 29.2963 1.23552 29.48 1.6 29.5557C2.27506 29.6852 2.96378 29.7563 3.65567 29.7682C12.2551 30.305 20.8836 30.4235 29.4989 30.1232C31.5066 30.0946 33.5098 29.9507 35.4946 29.6925C36.181 29.6111 36.84 29.4095 37.4298 29.1004C38.0195 28.7913 38.5273 28.3814 38.9208 27.8968C39.5197 26.8798 39.8173 25.7539 39.7876 24.6169C39.8664 22.8009 39.9075 20.9848 39.9794 19.1688L39.9452 19.1048C39.6601 19.0424 39.3705 18.9958 39.0784 18.9651ZM10.6278 8.61887C10.8688 8.36885 11.1684 8.16418 11.5076 8.01787C11.8467 7.87157 12.218 7.78683 12.5979 7.76906C15.5991 7.64391 18.6073 7.67011 21.6086 7.66138C27.409 7.66138 33.2026 7.87965 38.9927 8.13576C39.3173 8.1613 39.6436 8.16713 39.9692 8.15322C39.8013 6.23823 39.7499 4.31741 39.5683 2.40533C39.5599 2.00561 39.4635 1.61076 39.2839 1.2412C39.0087 0.939828 38.6051 0.742304 38.1602 0.691151C37.3761 0.587394 36.5856 0.522288 35.7927 0.496159C28.2861 0.088714 20.7555 -0.13538 13.2385 0.0887144C10.8163 0.161473 8.3803 0.237141 5.98201 0.426312C4.40431 0.450578 2.88322 0.929854 1.66852 1.78543C1.04152 2.3395 0.622888 3.03957 0.465952 3.79647C0.248749 4.85336 0.146677 5.92501 0.161029 6.99782C0.126768 8.3453 0.0616697 9.68987 0.041113 11.0344C9.1409 12.3528 18.2304 13.7032 27.3233 15.0332C31.5512 15.6473 35.7756 16.2905 40 16.8842V13.2492C32.4625 12.056 24.949 10.886 17.4287 9.68987C15.164 9.32899 12.8994 8.95938 10.6278 8.61887Z" fill="white"/>
</svg>
